<svg width="37" height="27" viewBox="0 0 37 27" fill="none" xmlns="http://www.w3.org/2000/svg">
<mask id="path-1-outside-1_1935_156" maskUnits="userSpaceOnUse" x="0" y="0" width="19" height="25" fill="black">
<rect fill="white" width="19" height="25"/>
<path d="M12.12 20C11.96 19.5 11.76 19.1 11.64 18.46C10.82 19.68 9.68 20.16 8.56 20.16C6.42 20.16 4.58 18.4 4.58 15.1C4.58 11.64 6.6 9.94 8.74 9.94C9.86 9.94 10.88 10.42 11.56 11.34V8.3C11.56 7.1 11.16 5.96 11 5.54L10.98 5.48L11.5 5.4L13.64 5.12V17.1C13.64 18.3 13.98 19.5 14.08 19.94V20H12.12ZM6.84 15.02C6.84 17.12 7.58 19.04 9.36 19.04C10.22 19.04 10.94 18.56 11.58 17.86C11.56 17.72 11.56 17.56 11.56 17.4V12.1C11.02 11.54 10.34 11.12 9.5 11.12C7.82 11.12 6.84 12.7 6.84 15.02Z"/>
</mask>
<path d="M12.12 20C11.96 19.5 11.76 19.1 11.64 18.46C10.82 19.68 9.68 20.16 8.56 20.16C6.42 20.16 4.58 18.4 4.58 15.1C4.58 11.64 6.6 9.94 8.74 9.94C9.86 9.94 10.88 10.42 11.56 11.34V8.3C11.56 7.1 11.16 5.96 11 5.54L10.98 5.48L11.5 5.4L13.64 5.12V17.1C13.64 18.3 13.98 19.5 14.08 19.94V20H12.12ZM6.84 15.02C6.84 17.12 7.58 19.04 9.36 19.04C10.22 19.04 10.94 18.56 11.58 17.86C11.56 17.72 11.56 17.56 11.56 17.4V12.1C11.02 11.54 10.34 11.12 9.5 11.12C7.82 11.12 6.84 12.7 6.84 15.02Z" fill="#0C151D"/>
<path d="M12.12 20L8.3103 21.2191L9.20019 24H12.12V20ZM11.64 18.46L15.5715 17.7228L13.7708 8.1192L8.3202 16.2287L11.64 18.46ZM11.56 11.34L8.3433 13.7176L15.56 23.4813V11.34H11.56ZM11 5.54L7.20528 6.80494L7.23198 6.88506L7.26205 6.96398L11 5.54ZM10.98 5.48L10.3718 1.52651L5.68605 2.24739L7.18528 6.74494L10.98 5.48ZM11.5 5.4L10.9811 1.4338L10.9363 1.43966L10.8918 1.44651L11.5 5.4ZM13.64 5.12H17.64V0.562542L13.1211 1.15381L13.64 5.12ZM14.08 19.94H18.08V19.4912L17.9805 19.0535L14.08 19.94ZM14.08 20V24H18.08V20H14.08ZM11.58 17.86L14.5321 20.5591L15.807 19.1647L15.5398 17.2943L11.58 17.86ZM11.56 12.1H15.56V10.4856L14.4394 9.32346L11.56 12.1ZM15.9297 18.7809C15.8642 18.5761 15.7991 18.3958 15.7506 18.2635C15.6945 18.1102 15.6702 18.046 15.6398 17.9594C15.596 17.8344 15.5821 17.7796 15.5715 17.7228L7.70851 19.1972C7.81787 19.7804 7.96398 20.2456 8.09017 20.6056C8.26012 21.0905 8.24137 21.0037 8.3103 21.2191L15.9297 18.7809ZM8.3202 16.2287C8.2879 16.2767 8.27448 16.2852 8.28869 16.2723C8.30334 16.2591 8.33301 16.2362 8.37664 16.2137C8.47045 16.1652 8.54458 16.16 8.56 16.16V24.16C10.9345 24.16 13.3545 23.0797 14.9598 20.6913L8.3202 16.2287ZM8.56 16.16C8.57842 16.16 8.63186 16.1651 8.6992 16.1959C8.76824 16.2275 8.8047 16.2645 8.81019 16.271C8.82971 16.2938 8.58 16.018 8.58 15.1H0.58C0.58 17.482 1.25029 19.7362 2.72481 21.464C4.2243 23.2212 6.33789 24.16 8.56 24.16V16.16ZM8.58 15.1C8.58 14.6231 8.6495 14.315 8.71042 14.1384C8.77005 13.9656 8.82579 13.9038 8.82938 13.8998C8.83288 13.8959 8.81692 13.9128 8.78372 13.9273C8.75383 13.9403 8.73608 13.94 8.74 13.94V5.94C6.58491 5.94 4.44831 6.81057 2.88562 8.5452C1.32535 10.2772 0.58 12.587 0.58 15.1H8.58ZM8.74 13.94C8.72479 13.94 8.65386 13.9354 8.55615 13.8876C8.4542 13.8376 8.38105 13.7686 8.3433 13.7176L14.7767 8.96243C13.3009 6.96571 11.0572 5.94 8.74 5.94V13.94ZM15.56 11.34V8.3H7.56V11.34H15.56ZM15.56 8.3C15.56 6.34352 14.9382 4.64161 14.738 4.11602L7.26205 6.96398C7.30764 7.08365 7.38829 7.30875 7.45594 7.58358C7.52693 7.87196 7.56 8.12138 7.56 8.3H15.56ZM14.7947 4.27505L14.7747 4.21505L7.18528 6.74494L7.20528 6.80494L14.7947 4.27505ZM11.5882 9.43349L12.1082 9.35349L10.8918 1.44651L10.3718 1.52651L11.5882 9.43349ZM12.0189 9.36619L14.1589 9.08619L13.1211 1.15381L10.9811 1.4338L12.0189 9.36619ZM9.64 5.12V17.1H17.64V5.12H9.64ZM9.64 17.1C9.64 18.8726 10.1403 20.654 10.1795 20.8265L17.9805 19.0535C17.8838 18.6278 17.834 18.4821 17.75 18.0467C17.6781 17.6743 17.64 17.3488 17.64 17.1H9.64ZM10.08 19.94V20H18.08V19.94H10.08ZM14.08 16H12.12V24H14.08V16ZM2.84 15.02C2.84 16.4455 3.07676 18.1948 3.92589 19.742C4.87117 21.4644 6.69691 23.04 9.36 23.04V15.04C9.67584 15.04 10.0721 15.138 10.4319 15.3775C10.7603 15.5961 10.9037 15.8285 10.9391 15.893C10.9716 15.9521 10.9394 15.9141 10.9024 15.7328C10.8669 15.5594 10.84 15.318 10.84 15.02H2.84ZM9.36 23.04C11.854 23.04 13.5664 21.6153 14.5321 20.5591L8.62788 15.1609C8.49014 15.3116 8.47294 15.2931 8.58583 15.2294C8.64968 15.1933 8.75349 15.1438 8.89442 15.1041C9.03829 15.0635 9.19696 15.04 9.36 15.04V23.04ZM15.5398 17.2943C15.5497 17.3633 15.5546 17.4169 15.557 17.4499C15.5596 17.4831 15.5603 17.5042 15.5604 17.5085C15.5606 17.5128 15.5603 17.508 15.5602 17.4882C15.56 17.4669 15.56 17.4427 15.56 17.4H7.56C7.56 17.4861 7.55215 17.9493 7.6202 18.4257L15.5398 17.2943ZM15.56 17.4V12.1H7.56V17.4H15.56ZM14.4394 9.32346C13.4527 8.30025 11.8008 7.12 9.5 7.12V15.12C9.22567 15.12 8.98599 15.0455 8.82251 14.962C8.67994 14.8891 8.63793 14.8323 8.68062 14.8765L14.4394 9.32346ZM9.5 7.12C7.20319 7.12 5.33721 8.28689 4.20806 9.98681C3.17839 11.537 2.84 13.3683 2.84 15.02H10.84C10.84 14.7151 10.8728 14.5109 10.9008 14.3984C10.9296 14.2828 10.942 14.3078 10.8719 14.4132C10.7957 14.528 10.6277 14.7259 10.3351 14.8903C10.0327 15.0602 9.72847 15.12 9.5 15.12V7.12Z" fill="#E9E32B" mask="url(#path-1-outside-1_1935_156)"/>
<mask id="path-3-outside-2_1935_156" maskUnits="userSpaceOnUse" x="18" y="0" width="19" height="27" fill="black">
<rect fill="white" x="18" width="19" height="27"/>
<path d="M27.32 20.14C28.1 20.14 28.98 19.94 29.78 19.28L31.82 20.12V8.3C31.82 7.1 32.16 5.94 32.32 5.54V5.46L31.9 5.4L29.72 5.12V11.38C29 10.4 27.96 9.92 26.8 9.92C24.62 9.92 22.88 11.66 22.88 14.86C22.88 18.42 25.02 20.14 27.32 20.14ZM29.72 18.68C29.22 18.96 28.66 19.06 28.18 19.06C26.08 19.06 25.14 17.06 25.14 14.86C25.14 12.9 25.92 11.14 27.64 11.14C28.44 11.14 29.12 11.56 29.72 12.22V18.68Z"/>
</mask>
<path d="M27.32 20.14C28.1 20.14 28.98 19.94 29.78 19.28L31.82 20.12V8.3C31.82 7.1 32.16 5.94 32.32 5.54V5.46L31.9 5.4L29.72 5.12V11.38C29 10.4 27.96 9.92 26.8 9.92C24.62 9.92 22.88 11.66 22.88 14.86C22.88 18.42 25.02 20.14 27.32 20.14ZM29.72 18.68C29.22 18.96 28.66 19.06 28.18 19.06C26.08 19.06 25.14 17.06 25.14 14.86C25.14 12.9 25.92 11.14 27.64 11.14C28.44 11.14 29.12 11.56 29.72 12.22V18.68Z" fill="#0C151D"/>
<path d="M29.78 19.28L27.2345 16.1945L29.0849 14.6679L31.303 15.5813L29.78 19.28ZM31.82 20.12H35.82V26.0929L30.297 23.8187L31.82 20.12ZM32.32 5.54H36.32V6.31033L36.0339 7.02556L32.32 5.54ZM32.32 5.46L32.8857 1.5002L36.32 1.99081V5.46H32.32ZM31.9 5.4L32.4096 1.43259L32.4377 1.4362L32.4657 1.4402L31.9 5.4ZM29.72 5.12H25.72V0.573379L30.2296 1.15259L29.72 5.12ZM29.72 11.38H33.72V23.5803L26.4965 13.7483L29.72 11.38ZM29.72 18.68H33.72V21.0245L31.6744 22.17L29.72 18.68ZM29.72 12.22L32.6798 9.52931L33.72 10.6736V12.22H29.72ZM27.32 16.14C27.3703 16.14 27.3686 16.1335 27.3325 16.1449C27.3142 16.1507 27.2928 16.1594 27.2714 16.1709C27.2497 16.1826 27.2371 16.1923 27.2345 16.1945L32.3255 22.3655C30.6533 23.7451 28.8048 24.14 27.32 24.14V16.14ZM31.303 15.5813L33.343 16.4213L30.297 23.8187L28.257 22.9787L31.303 15.5813ZM27.82 20.12V8.3H35.82V20.12H27.82ZM27.82 8.3C27.82 6.48406 28.3014 4.81615 28.6061 4.05444L36.0339 7.02556C36.0514 6.98192 36.0393 7.00725 36.01 7.10627C35.9836 7.19541 35.9516 7.31638 35.9212 7.45812C35.8572 7.75694 35.82 8.05652 35.82 8.3H27.82ZM28.32 5.54V5.46H36.32V5.54H28.32ZM31.7543 9.4198L31.3343 9.3598L32.4657 1.4402L32.8857 1.5002L31.7543 9.4198ZM31.3904 9.36741L29.2104 9.08741L30.2296 1.15259L32.4096 1.43259L31.3904 9.36741ZM33.72 5.12V11.38H25.72V5.12H33.72ZM26.4965 13.7483C26.4964 13.7483 26.4974 13.7496 26.4995 13.7521C26.5015 13.7546 26.5046 13.7581 26.5088 13.7626C26.5172 13.7716 26.5292 13.7834 26.5451 13.7968C26.5782 13.8247 26.6192 13.8521 26.6652 13.8746C26.7636 13.9228 26.8228 13.92 26.8 13.92V5.92C29.1539 5.92 31.4243 6.94382 32.9435 9.01169L26.4965 13.7483ZM26.8 13.92C26.7925 13.92 26.8422 13.92 26.9206 13.8844C27.0016 13.8477 27.0542 13.7996 27.0743 13.7758C27.1188 13.7233 26.88 13.9656 26.88 14.86H18.88C18.88 12.5544 19.5112 10.3267 20.9707 8.60418C22.4682 6.83682 24.5815 5.92 26.8 5.92V13.92ZM26.88 14.86C26.88 15.35 26.9534 15.6629 27.017 15.8406C27.0788 16.0137 27.1384 16.0808 27.152 16.0954C27.1569 16.1005 27.1804 16.14 27.32 16.14V24.14C25.1596 24.14 22.9631 23.3195 21.323 21.5746C19.6754 19.8219 18.88 17.4548 18.88 14.86H26.88ZM31.6744 22.17C30.4391 22.8618 29.1663 23.06 28.18 23.06V15.06C28.1486 15.06 28.1076 15.0627 28.0512 15.0756C27.9938 15.0887 27.8923 15.119 27.7656 15.19L31.6744 22.17ZM28.18 23.06C25.6224 23.06 23.6573 21.7388 22.5064 19.9458C21.4663 18.3256 21.14 16.4467 21.14 14.86H29.14C29.14 15.1327 29.1699 15.349 29.2062 15.4984C29.2437 15.6523 29.274 15.6793 29.2386 15.6242C29.1968 15.559 29.0703 15.3944 28.8224 15.251C28.5606 15.0995 28.3152 15.06 28.18 15.06V23.06ZM21.14 14.86C21.14 13.4353 21.4103 11.7187 22.3128 10.2107C23.3148 8.53666 25.1368 7.14 27.64 7.14V15.14C27.9255 15.14 28.2902 15.0572 28.634 14.8437C28.9554 14.6441 29.1176 14.4188 29.1772 14.3193C29.2324 14.2271 29.2167 14.2175 29.1896 14.3372C29.1638 14.4507 29.14 14.6278 29.14 14.86H21.14ZM27.64 7.14C29.9972 7.14 31.6697 8.41823 32.6798 9.52931L26.7602 14.9107C26.6714 14.813 26.6938 14.8648 26.8449 14.947C27.0236 15.0441 27.305 15.14 27.64 15.14V7.14ZM33.72 12.22V18.68H25.72V12.22H33.72Z" fill="#E9E32B" mask="url(#path-3-outside-2_1935_156)"/>
</svg>
