<svg width="303" height="295" viewBox="0 0 303 295" fill="none" xmlns="http://www.w3.org/2000/svg">
<g clip-path="url(#clip0_1935_161)">
<rect width="303" height="295" rx="19" fill="#0A0D12"/>
<rect x="20.5835" y="53.0027" width="128" height="102" rx="19" transform="rotate(10.7016 20.5835 53.0027)" fill="#155EEF"/>
<path d="M44.248 101.699L41.547 115.991L39.8721 115.675L34.2045 102.981L34.065 102.954L31.9443 114.176L30.2135 113.849L32.9145 99.5568L34.5894 99.8733L40.2796 112.6L40.4192 112.627L42.5452 101.377L44.248 101.699ZM56.8339 108.703C56.7692 108.204 56.6464 107.745 56.4655 107.325C56.2901 106.902 56.0553 106.525 55.7612 106.195C55.4717 105.865 55.1238 105.59 54.7174 105.368C54.3111 105.147 53.8498 104.988 53.3333 104.89C52.4866 104.73 51.6753 104.803 50.8994 105.109C50.1235 105.416 49.4504 105.956 48.8801 106.73C48.3098 107.504 47.9077 108.51 47.6738 109.747C47.44 110.985 47.4496 112.069 47.7028 112.998C47.956 113.928 48.3948 114.678 49.0193 115.249C49.6439 115.82 50.3981 116.189 51.2821 116.356C52.1009 116.511 52.8551 116.473 53.5444 116.242C54.2393 116.007 54.8219 115.601 55.2922 115.025C55.768 114.445 56.0886 113.718 56.2538 112.843L56.7631 113.055L52.4642 112.243L52.7544 110.708L58.1978 111.736L57.9076 113.272C57.6852 114.449 57.2405 115.425 56.5736 116.2C55.9114 116.976 55.0954 117.52 54.1255 117.833C53.1611 118.143 52.1113 118.19 50.9761 117.975C49.7107 117.736 48.655 117.228 47.8091 116.452C46.9679 115.676 46.3835 114.688 46.056 113.489C45.7331 112.291 45.7141 110.938 45.9989 109.431C46.2126 108.3 46.5559 107.312 47.0289 106.467C47.5074 105.618 48.086 104.927 48.7648 104.395C49.4435 103.863 50.1965 103.5 51.0237 103.304C51.8509 103.109 52.7228 103.098 53.6393 103.271C54.393 103.413 55.074 103.66 55.6823 104.011C56.2961 104.358 56.8197 104.788 57.2533 105.298C57.6923 105.805 58.0299 106.378 58.2661 107.015C58.5031 107.647 58.6212 108.323 58.6205 109.041L56.8339 108.703ZM65.7317 120.561L68.4327 106.269L70.1634 106.596L67.7526 119.353L74.3964 120.609L74.1062 122.144L65.7317 120.561ZM81.0718 123.692C80.1041 123.509 79.2985 123.118 78.6551 122.519C78.0164 121.922 77.5705 121.17 77.3176 120.265C77.0694 119.36 77.0499 118.354 77.2591 117.247C77.4701 116.13 77.8567 115.194 78.4189 114.437C78.9857 113.682 79.6755 113.142 80.4883 112.819C81.3058 112.496 82.1984 112.427 83.1661 112.609C84.1338 112.792 84.9371 113.183 85.5758 113.78C86.2192 114.379 86.6646 115.133 86.912 116.042C87.164 116.952 87.1846 117.966 86.9735 119.082C86.7643 120.19 86.3767 121.119 85.8108 121.87C85.2495 122.621 84.5601 123.158 83.7426 123.481C82.9298 123.804 82.0395 123.875 81.0718 123.692ZM81.3514 122.212C82.0865 122.351 82.7269 122.277 83.2727 121.99C83.8185 121.703 84.2634 121.274 84.6074 120.703C84.9514 120.131 85.1912 119.488 85.3266 118.771C85.462 118.055 85.4741 117.366 85.3631 116.704C85.2521 116.042 84.9953 115.475 84.5929 115.004C84.1904 114.533 83.6216 114.228 82.8865 114.089C82.1514 113.95 81.5106 114.027 80.9639 114.318C80.4173 114.61 79.9715 115.044 79.6266 115.62C79.2817 116.195 79.0415 116.841 78.9061 117.558C78.7707 118.274 78.759 118.961 78.8709 119.618C78.9828 120.276 79.2404 120.838 79.6437 121.304C80.0471 121.771 80.6163 122.073 81.3514 122.212ZM92.2068 129.959C91.4112 129.809 90.7466 129.577 90.2131 129.265C89.6786 128.956 89.2519 128.601 88.9328 128.199C88.6175 127.802 88.3833 127.396 88.2303 126.982L89.7164 126.308C89.8284 126.532 89.9746 126.791 90.1551 127.085C90.3347 127.384 90.6047 127.664 90.965 127.925C91.329 128.191 91.8344 128.386 92.4811 128.508C93.3465 128.671 94.1002 128.597 94.7423 128.285C95.3844 127.972 95.7898 127.369 95.9586 126.476L96.3701 124.299L96.2305 124.272C96.0726 124.445 95.8548 124.654 95.5769 124.901C95.3046 125.143 94.9404 125.337 94.4841 125.482C94.0333 125.623 93.459 125.628 92.7612 125.496C91.8958 125.332 91.1575 124.981 90.5463 124.441C89.9398 123.903 89.5103 123.205 89.2579 122.348C89.0101 121.491 88.9918 120.505 89.2028 119.388C89.4103 118.29 89.784 117.371 90.3241 116.629C90.865 115.883 91.5219 115.352 92.2949 115.036C93.0687 114.715 93.907 114.639 94.8095 114.81C95.5074 114.942 96.0391 115.163 96.4045 115.473C96.7755 115.779 97.0427 116.099 97.2059 116.434C97.3747 116.764 97.5021 117.034 97.5878 117.243L97.7553 117.275L98.0771 115.572L99.6683 115.873L97.5845 126.899C97.4104 127.82 97.0595 128.53 96.5318 129.028C96.0078 129.531 95.369 129.851 94.6155 129.988C93.8658 130.131 93.0629 130.121 92.2068 129.959ZM93.2641 124.059C93.9247 124.184 94.5116 124.138 95.0247 123.922C95.5378 123.705 95.9666 123.336 96.3112 122.813C96.6557 122.29 96.9027 121.634 97.0522 120.843C97.1981 120.07 97.2106 119.367 97.0897 118.732C96.9687 118.097 96.7119 117.569 96.3193 117.148C95.9266 116.727 95.3953 116.453 94.7254 116.326C94.0275 116.194 93.4125 116.261 92.8804 116.527C92.353 116.793 91.9167 117.203 91.5716 117.754C91.231 118.307 90.9922 118.946 90.855 119.671C90.7144 120.416 90.7063 121.096 90.8307 121.712C90.9608 122.325 91.2253 122.837 91.6243 123.25C92.0289 123.659 92.5755 123.929 93.2641 124.059ZM105.166 128.245C104.199 128.062 103.393 127.671 102.75 127.073C102.111 126.475 101.665 125.723 101.412 124.818C101.164 123.913 101.144 122.907 101.354 121.8C101.565 120.683 101.951 119.747 102.513 118.991C103.08 118.235 103.77 117.696 104.583 117.372C105.4 117.05 106.293 116.98 107.261 117.163C108.228 117.346 109.032 117.736 109.67 118.334C110.314 118.932 110.759 119.686 111.007 120.596C111.259 121.506 111.279 122.519 111.068 123.636C110.859 124.743 110.471 125.672 109.905 126.423C109.344 127.175 108.655 127.712 107.837 128.034C107.024 128.358 106.134 128.428 105.166 128.245ZM105.446 126.766C106.181 126.905 106.822 126.83 107.367 126.543C107.913 126.256 108.358 125.827 108.702 125.256C109.046 124.685 109.286 124.041 109.421 123.325C109.557 122.608 109.569 121.919 109.458 121.257C109.347 120.595 109.09 120.029 108.687 119.558C108.285 119.086 107.716 118.781 106.981 118.642C106.246 118.503 105.605 118.58 105.059 118.872C104.512 119.164 104.066 119.597 103.721 120.173C103.376 120.749 103.136 121.395 103.001 122.111C102.865 122.828 102.854 123.515 102.965 124.172C103.077 124.829 103.335 125.391 103.738 125.857C104.142 126.324 104.711 126.627 105.446 126.766ZM121.941 122.568L120.383 122.707C120.336 122.443 120.244 122.178 120.107 121.911C119.975 121.64 119.77 121.399 119.492 121.187C119.214 120.976 118.835 120.825 118.356 120.734C117.7 120.61 117.125 120.658 116.63 120.878C116.141 121.094 115.853 121.432 115.766 121.893C115.689 122.302 115.777 122.654 116.03 122.947C116.282 123.241 116.71 123.526 117.313 123.804L118.831 124.496C119.745 124.909 120.392 125.4 120.771 125.968C121.151 126.532 121.271 127.188 121.129 127.937C121.013 128.551 120.733 129.067 120.288 129.484C119.847 129.902 119.287 130.191 118.606 130.351C117.925 130.512 117.168 130.513 116.335 130.356C115.242 130.149 114.382 129.741 113.755 129.131C113.128 128.521 112.806 127.742 112.787 126.794L114.424 126.699C114.464 127.304 114.664 127.79 115.023 128.156C115.388 128.524 115.907 128.771 116.582 128.899C117.349 129.044 117.99 128.996 118.502 128.756C119.021 128.512 119.324 128.159 119.411 127.699C119.481 127.327 119.41 126.99 119.196 126.69C118.984 126.385 118.62 126.118 118.104 125.891L116.397 125.134C115.459 124.716 114.806 124.219 114.438 123.644C114.075 123.065 113.964 122.405 114.103 121.665C114.218 121.06 114.489 120.557 114.916 120.156C115.348 119.756 115.885 119.479 116.526 119.326C117.172 119.173 117.871 119.168 118.625 119.31C119.686 119.511 120.475 119.901 120.992 120.481C121.513 121.061 121.83 121.757 121.941 122.568Z" fill="#FEFFFF"/>
<rect x="140" y="88.4976" width="128" height="102" rx="19" transform="rotate(-14.7076 140 88.4976)" fill="#FAC515"/>
<path d="M182.27 122.329L185.963 136.398L184.314 136.831L173.748 127.797L173.611 127.833L176.51 138.879L174.807 139.326L171.114 125.257L172.762 124.825L183.363 133.879L183.5 133.843L180.594 122.769L182.27 122.329ZM196.644 123.255C196.371 122.833 196.063 122.47 195.72 122.169C195.38 121.862 195.006 121.622 194.598 121.45C194.196 121.277 193.763 121.177 193.301 121.152C192.839 121.126 192.354 121.18 191.846 121.313C191.012 121.532 190.311 121.946 189.741 122.556C189.172 123.166 188.796 123.942 188.613 124.886C188.43 125.83 188.498 126.911 188.818 128.129C189.138 129.347 189.611 130.322 190.239 131.053C190.866 131.784 191.585 132.274 192.394 132.522C193.203 132.769 194.043 132.779 194.913 132.551C195.719 132.339 196.384 131.981 196.907 131.476C197.434 130.966 197.786 130.35 197.964 129.628C198.145 128.9 198.122 128.105 197.896 127.244L198.447 127.217L194.216 128.328L193.819 126.817L199.177 125.41L199.574 126.921C199.878 128.08 199.895 129.152 199.625 130.139C199.36 131.124 198.857 131.966 198.115 132.665C197.376 133.358 196.449 133.851 195.331 134.144C194.085 134.471 192.914 134.465 191.817 134.127C190.724 133.787 189.772 133.146 188.962 132.203C188.156 131.26 187.559 130.046 187.169 128.562C186.877 127.449 186.763 126.409 186.828 125.443C186.896 124.47 187.122 123.598 187.507 122.827C187.892 122.055 188.416 121.403 189.079 120.872C189.742 120.341 190.525 119.956 191.427 119.72C192.169 119.525 192.89 119.456 193.59 119.512C194.294 119.562 194.951 119.725 195.562 120C196.176 120.27 196.726 120.642 197.213 121.116C197.698 121.586 198.095 122.145 198.402 122.794L196.644 123.255ZM209.769 130.149L206.076 116.08L207.78 115.633L211.076 128.19L217.616 126.474L218.012 127.985L209.769 130.149ZM224.968 126.394C224.016 126.644 223.12 126.637 222.282 126.372C221.449 126.106 220.724 125.619 220.107 124.909C219.494 124.199 219.045 123.299 218.759 122.209C218.47 121.109 218.418 120.098 218.601 119.173C218.789 118.248 219.181 117.465 219.776 116.824C220.376 116.182 221.152 115.735 222.105 115.485C223.057 115.235 223.95 115.243 224.784 115.509C225.622 115.774 226.348 116.264 226.961 116.979C227.58 117.693 228.033 118.599 228.321 119.699C228.608 120.789 228.656 121.794 228.467 122.715C228.283 123.635 227.89 124.416 227.29 125.058C226.695 125.699 225.921 126.144 224.968 126.394ZM224.586 124.938C225.31 124.748 225.856 124.406 226.226 123.913C226.596 123.419 226.814 122.841 226.879 122.177C226.945 121.514 226.885 120.829 226.7 120.124C226.515 119.419 226.23 118.791 225.846 118.241C225.462 117.691 224.987 117.289 224.421 117.036C223.855 116.783 223.211 116.752 222.487 116.942C221.764 117.132 221.217 117.476 220.849 117.974C220.48 118.472 220.264 119.055 220.199 119.723C220.135 120.391 220.195 121.078 220.38 121.783C220.565 122.488 220.849 123.114 221.233 123.659C221.616 124.205 222.089 124.602 222.654 124.85C223.218 125.099 223.862 125.128 224.586 124.938ZM237.715 127.278C236.932 127.483 236.233 127.559 235.616 127.506C235.002 127.457 234.464 127.319 234.003 127.092C233.548 126.869 233.162 126.603 232.846 126.294L233.899 125.049C234.097 125.202 234.34 125.374 234.629 125.562C234.92 125.755 235.283 125.892 235.721 125.973C236.164 126.057 236.704 126.016 237.34 125.849C238.192 125.625 238.841 125.235 239.287 124.677C239.733 124.119 239.841 123.401 239.61 122.522L239.047 120.378L238.91 120.414C238.841 120.638 238.734 120.921 238.589 121.262C238.447 121.598 238.201 121.93 237.851 122.256C237.505 122.577 236.988 122.828 236.301 123.008C235.449 123.232 234.632 123.231 233.848 123.006C233.069 122.78 232.382 122.334 231.786 121.668C231.195 121 230.755 120.117 230.466 119.018C230.182 117.937 230.125 116.946 230.295 116.045C230.464 115.139 230.829 114.378 231.392 113.76C231.953 113.138 232.678 112.71 233.566 112.477C234.253 112.297 234.828 112.268 235.291 112.391C235.758 112.509 236.136 112.683 236.427 112.915C236.722 113.142 236.953 113.331 237.12 113.483L237.285 113.439L236.845 111.763L238.411 111.352L241.26 122.206C241.498 123.113 241.485 123.904 241.222 124.58C240.965 125.26 240.525 125.823 239.904 126.27C239.288 126.721 238.558 127.057 237.715 127.278ZM236.139 121.494C236.789 121.324 237.299 121.031 237.67 120.615C238.041 120.2 238.27 119.682 238.357 119.062C238.443 118.442 238.385 117.742 238.18 116.964C237.981 116.204 237.69 115.563 237.309 115.041C236.927 114.52 236.468 114.153 235.933 113.941C235.398 113.729 234.8 113.71 234.141 113.883C233.454 114.063 232.927 114.387 232.56 114.856C232.198 115.323 231.98 115.879 231.905 116.526C231.834 117.171 231.893 117.851 232.08 118.565C232.273 119.298 232.557 119.916 232.934 120.419C233.314 120.916 233.773 121.266 234.311 121.468C234.852 121.663 235.461 121.672 236.139 121.494ZM248.686 120.169C247.733 120.419 246.838 120.411 246 120.147C245.167 119.881 244.441 119.393 243.824 118.684C243.212 117.973 242.763 117.073 242.477 115.983C242.188 114.884 242.135 113.872 242.319 112.948C242.507 112.022 242.898 111.239 243.494 110.598C244.094 109.956 244.87 109.51 245.823 109.26C246.775 109.01 247.668 109.018 248.502 109.284C249.34 109.548 250.065 110.038 250.679 110.753C251.297 111.467 251.751 112.374 252.039 113.473C252.325 114.563 252.374 115.568 252.185 116.489C252 117.409 251.608 118.19 251.008 118.832C250.413 119.473 249.639 119.919 248.686 120.169ZM248.304 118.712C249.027 118.522 249.574 118.181 249.944 117.687C250.313 117.194 250.531 116.615 250.597 115.952C250.663 115.288 250.603 114.604 250.418 113.899C250.233 113.193 249.948 112.566 249.564 112.015C249.179 111.465 248.704 111.064 248.139 110.811C247.573 110.558 246.928 110.526 246.205 110.716C245.481 110.906 244.935 111.25 244.567 111.748C244.198 112.246 243.981 112.83 243.917 113.498C243.852 114.166 243.913 114.852 244.098 115.557C244.283 116.263 244.567 116.888 244.95 117.434C245.333 117.979 245.807 118.376 246.372 118.625C246.936 118.873 247.58 118.902 248.304 118.712ZM261.402 107.843L260.054 108.638C259.899 108.419 259.702 108.219 259.463 108.036C259.228 107.849 258.939 107.719 258.597 107.647C258.255 107.575 257.849 107.601 257.377 107.725C256.731 107.894 256.232 108.185 255.88 108.595C255.531 109 255.416 109.429 255.535 109.883C255.641 110.286 255.871 110.565 256.225 110.722C256.579 110.879 257.088 110.953 257.752 110.945L259.419 110.919C260.423 110.9 261.218 111.066 261.804 111.416C262.389 111.762 262.779 112.304 262.972 113.041C263.131 113.646 263.099 114.232 262.876 114.799C262.657 115.366 262.275 115.867 261.729 116.305C261.183 116.742 260.5 117.068 259.68 117.283C258.604 117.565 257.652 117.566 256.824 117.284C255.996 117.002 255.37 116.436 254.947 115.588L256.385 114.8C256.68 115.329 257.069 115.682 257.551 115.859C258.038 116.035 258.613 116.036 259.278 115.861C260.033 115.663 260.591 115.345 260.951 114.908C261.315 114.465 261.437 114.017 261.318 113.563C261.222 113.197 261.013 112.924 260.691 112.744C260.369 112.559 259.926 112.475 259.362 112.491L257.495 112.54C256.469 112.565 255.666 112.396 255.086 112.034C254.51 111.667 254.126 111.119 253.935 110.391C253.779 109.795 253.808 109.225 254.022 108.679C254.241 108.132 254.606 107.652 255.12 107.238C255.637 106.823 256.267 106.518 257.009 106.324C258.053 106.049 258.933 106.063 259.649 106.365C260.369 106.665 260.953 107.158 261.402 107.843Z" fill="#FEFFFF"/>
<g filter="url(#filter0_bd_1935_161)">
<path d="M-19 125C-19 114.507 -10.4934 106 1.74545e-06 106H58.8134C62.856 106 66.7933 107.289 70.0528 109.681L137.103 158.875C143.868 163.838 153.087 163.777 159.785 158.724L224.598 109.832C227.894 107.345 231.911 106 236.04 106H297C307.493 106 316 114.507 316 125V276C316 286.493 307.493 295 297 295H8.10623e-06C-10.4934 295 -19 286.493 -19 276V125Z" fill="#875BE0" fill-opacity="0.26" shape-rendering="crispEdges"/>
</g>
<path d="M31.0909 264H27.1477V252.364H31.1705C32.3258 252.364 33.3182 252.597 34.1477 253.062C34.9811 253.525 35.6212 254.189 36.0682 255.057C36.5152 255.924 36.7386 256.962 36.7386 258.17C36.7386 259.383 36.5133 260.424 36.0625 261.295C35.6155 262.167 34.9697 262.835 34.125 263.301C33.2841 263.767 32.2727 264 31.0909 264ZM29.2557 262.176H30.9886C31.7992 262.176 32.4754 262.028 33.017 261.733C33.5587 261.434 33.9659 260.989 34.2386 260.398C34.5114 259.803 34.6477 259.061 34.6477 258.17C34.6477 257.28 34.5114 256.542 34.2386 255.955C33.9659 255.364 33.5625 254.922 33.0284 254.631C32.4981 254.335 31.839 254.188 31.0511 254.188H29.2557V262.176ZM42.2742 264.17C41.3992 264.17 40.6435 263.989 40.0072 263.625C39.3746 263.258 38.8878 262.739 38.5469 262.068C38.206 261.394 38.0356 260.6 38.0356 259.688C38.0356 258.79 38.206 258.002 38.5469 257.324C38.8916 256.642 39.3727 256.112 39.9901 255.733C40.6075 255.35 41.3329 255.159 42.1663 255.159C42.7041 255.159 43.2117 255.246 43.689 255.42C44.17 255.591 44.5943 255.856 44.9617 256.216C45.3329 256.576 45.6246 257.034 45.8367 257.591C46.0488 258.144 46.1549 258.803 46.1549 259.568V260.199H39.0015V258.812H44.1833C44.1795 258.419 44.0943 258.068 43.9276 257.761C43.7609 257.451 43.528 257.206 43.2288 257.028C42.9333 256.85 42.5886 256.761 42.1947 256.761C41.7742 256.761 41.4049 256.864 41.0867 257.068C40.7685 257.269 40.5204 257.534 40.3424 257.864C40.1681 258.189 40.0791 258.547 40.0753 258.938V260.148C40.0753 260.655 40.1681 261.091 40.3538 261.455C40.5394 261.814 40.7988 262.091 41.1322 262.284C41.4655 262.473 41.8556 262.568 42.3026 262.568C42.6019 262.568 42.8727 262.527 43.1151 262.443C43.3575 262.356 43.5678 262.229 43.7458 262.062C43.9238 261.896 44.0583 261.689 44.1492 261.443L46.0697 261.659C45.9484 262.167 45.7174 262.61 45.3765 262.989C45.0394 263.364 44.6075 263.655 44.081 263.864C43.5545 264.068 42.9522 264.17 42.2742 264.17ZM54.5527 257.58L52.6777 257.784C52.6246 257.595 52.5318 257.417 52.3993 257.25C52.2705 257.083 52.0962 256.949 51.8765 256.847C51.6568 256.744 51.3879 256.693 51.0697 256.693C50.6417 256.693 50.2818 256.786 49.9902 256.972C49.7023 257.157 49.5602 257.398 49.564 257.693C49.5602 257.947 49.653 258.153 49.8424 258.312C50.0356 258.472 50.3538 258.602 50.797 258.705L52.2856 259.023C53.1114 259.201 53.725 259.483 54.1265 259.869C54.5318 260.256 54.7364 260.761 54.7402 261.386C54.7364 261.936 54.5754 262.42 54.2572 262.841C53.9428 263.258 53.5053 263.583 52.9447 263.818C52.3841 264.053 51.7402 264.17 51.0129 264.17C49.9447 264.17 49.0849 263.947 48.4334 263.5C47.7818 263.049 47.3936 262.422 47.2686 261.619L49.2743 261.426C49.3652 261.82 49.5584 262.117 49.8538 262.318C50.1493 262.519 50.5337 262.619 51.0072 262.619C51.4959 262.619 51.8879 262.519 52.1834 262.318C52.4826 262.117 52.6322 261.869 52.6322 261.574C52.6322 261.324 52.5356 261.117 52.3424 260.955C52.153 260.792 51.8576 260.667 51.4561 260.58L49.9674 260.267C49.1303 260.093 48.511 259.799 48.1095 259.386C47.708 258.97 47.5091 258.443 47.5129 257.807C47.5091 257.269 47.6549 256.803 47.9504 256.409C48.2496 256.011 48.6644 255.705 49.1947 255.489C49.7288 255.269 50.3443 255.159 51.0413 255.159C52.064 255.159 52.869 255.377 53.4561 255.812C54.047 256.248 54.4125 256.837 54.5527 257.58ZM56.1962 264V255.273H58.253V264H56.1962ZM57.2303 254.034C56.9045 254.034 56.6242 253.926 56.3894 253.71C56.1545 253.491 56.0371 253.227 56.0371 252.92C56.0371 252.61 56.1545 252.347 56.3894 252.131C56.6242 251.911 56.9045 251.801 57.2303 251.801C57.5598 251.801 57.8401 251.911 58.0712 252.131C58.306 252.347 58.4235 252.61 58.4235 252.92C58.4235 253.227 58.306 253.491 58.0712 253.71C57.8401 253.926 57.5598 254.034 57.2303 254.034ZM63.9235 267.455C63.1849 267.455 62.5504 267.354 62.0201 267.153C61.4898 266.956 61.0637 266.691 60.7417 266.358C60.4197 266.025 60.1963 265.655 60.0713 265.25L61.9235 264.801C62.0069 264.972 62.1281 265.14 62.2872 265.307C62.4463 265.477 62.6603 265.617 62.9292 265.727C63.2019 265.841 63.5447 265.898 63.9576 265.898C64.5409 265.898 65.0239 265.756 65.4065 265.472C65.7891 265.191 65.9803 264.729 65.9803 264.085V262.432H65.8781C65.772 262.644 65.6167 262.862 65.4122 263.085C65.2114 263.309 64.9444 263.496 64.611 263.648C64.2815 263.799 63.8667 263.875 63.3667 263.875C62.6963 263.875 62.0883 263.718 61.5428 263.403C61.0012 263.085 60.5694 262.612 60.2474 261.983C59.9292 261.35 59.7701 260.559 59.7701 259.608C59.7701 258.65 59.9292 257.841 60.2474 257.182C60.5694 256.519 61.0031 256.017 61.5485 255.676C62.094 255.331 62.7019 255.159 63.3724 255.159C63.8838 255.159 64.3042 255.246 64.6338 255.42C64.9671 255.591 65.2322 255.797 65.4292 256.04C65.6262 256.278 65.7758 256.504 65.8781 256.716H65.9917V255.273H68.0201V264.142C68.0201 264.888 67.8421 265.506 67.486 265.994C67.13 266.483 66.6432 266.848 66.0258 267.091C65.4084 267.333 64.7076 267.455 63.9235 267.455ZM63.9406 262.261C64.3762 262.261 64.7474 262.155 65.0542 261.943C65.361 261.731 65.594 261.426 65.7531 261.028C65.9122 260.631 65.9917 260.153 65.9917 259.597C65.9917 259.047 65.9122 258.566 65.7531 258.153C65.5978 257.741 65.3667 257.42 65.0599 257.193C64.7569 256.962 64.3838 256.847 63.9406 256.847C63.4822 256.847 63.0997 256.966 62.7928 257.205C62.486 257.443 62.255 257.771 62.0997 258.188C61.9444 258.6 61.8667 259.07 61.8667 259.597C61.8667 260.131 61.9444 260.598 62.0997 261C62.2588 261.398 62.4917 261.708 62.7985 261.932C63.1091 262.152 63.4898 262.261 63.9406 262.261ZM71.9449 258.886V264H69.8881V255.273H71.854V256.756H71.9562C72.157 256.267 72.4771 255.879 72.9165 255.591C73.3597 255.303 73.907 255.159 74.5585 255.159C75.1608 255.159 75.6854 255.288 76.1324 255.545C76.5831 255.803 76.9316 256.176 77.1778 256.665C77.4278 257.153 77.5509 257.746 77.5472 258.443V264H75.4903V258.761C75.4903 258.178 75.3388 257.722 75.0358 257.392C74.7366 257.062 74.3218 256.898 73.7915 256.898C73.4316 256.898 73.1116 256.977 72.8312 257.136C72.5547 257.292 72.3369 257.517 72.1778 257.812C72.0225 258.108 71.9449 258.466 71.9449 258.886ZM83.2617 264.17C82.3867 264.17 81.631 263.989 80.9947 263.625C80.3621 263.258 79.8753 262.739 79.5344 262.068C79.1935 261.394 79.0231 260.6 79.0231 259.688C79.0231 258.79 79.1935 258.002 79.5344 257.324C79.8791 256.642 80.3602 256.112 80.9776 255.733C81.595 255.35 82.3204 255.159 83.1538 255.159C83.6916 255.159 84.1992 255.246 84.6765 255.42C85.1575 255.591 85.5818 255.856 85.9492 256.216C86.3204 256.576 86.6121 257.034 86.8242 257.591C87.0363 258.144 87.1424 258.803 87.1424 259.568V260.199H79.989V258.812H85.1708C85.167 258.419 85.0818 258.068 84.9151 257.761C84.7484 257.451 84.5155 257.206 84.2163 257.028C83.9208 256.85 83.5761 256.761 83.1822 256.761C82.7617 256.761 82.3924 256.864 82.0742 257.068C81.756 257.269 81.5079 257.534 81.3299 257.864C81.1556 258.189 81.0666 258.547 81.0628 258.938V260.148C81.0628 260.655 81.1556 261.091 81.3413 261.455C81.5269 261.814 81.7863 262.091 82.1197 262.284C82.453 262.473 82.8431 262.568 83.2901 262.568C83.5894 262.568 83.8602 262.527 84.1026 262.443C84.345 262.356 84.5553 262.229 84.7333 262.062C84.9113 261.896 85.0458 261.689 85.1367 261.443L87.0572 261.659C86.9359 262.167 86.7049 262.61 86.364 262.989C86.0269 263.364 85.595 263.655 85.0685 263.864C84.542 264.068 83.9397 264.17 83.2617 264.17ZM91.8811 264.153C91.1955 264.153 90.5818 263.977 90.0402 263.625C89.4985 263.273 89.0705 262.761 88.7561 262.091C88.4417 261.42 88.2845 260.606 88.2845 259.648C88.2845 258.678 88.4436 257.86 88.7618 257.193C89.0837 256.523 89.5174 256.017 90.0629 255.676C90.6084 255.331 91.2163 255.159 91.8868 255.159C92.3981 255.159 92.8186 255.246 93.1481 255.42C93.4777 255.591 93.739 255.797 93.9322 256.04C94.1254 256.278 94.275 256.504 94.3811 256.716H94.4663V252.364H96.5288V264H94.5061V262.625H94.3811C94.275 262.837 94.1216 263.062 93.9209 263.301C93.7201 263.536 93.4549 263.737 93.1254 263.903C92.7959 264.07 92.3811 264.153 91.8811 264.153ZM92.4549 262.466C92.8905 262.466 93.2618 262.348 93.5686 262.114C93.8754 261.875 94.1084 261.544 94.2674 261.119C94.4265 260.695 94.5061 260.201 94.5061 259.636C94.5061 259.072 94.4265 258.581 94.2674 258.165C94.1121 257.748 93.8811 257.424 93.5743 257.193C93.2712 256.962 92.8981 256.847 92.4549 256.847C91.9966 256.847 91.614 256.966 91.3072 257.205C91.0004 257.443 90.7693 257.773 90.614 258.193C90.4587 258.614 90.3811 259.095 90.3811 259.636C90.3811 260.182 90.4587 260.669 90.614 261.097C90.7731 261.521 91.0061 261.856 91.3129 262.102C91.6235 262.345 92.0042 262.466 92.4549 262.466ZM102.3 264V252.364H104.357V256.716H104.442C104.548 256.504 104.698 256.278 104.891 256.04C105.084 255.797 105.346 255.591 105.675 255.42C106.005 255.246 106.425 255.159 106.937 255.159C107.611 255.159 108.219 255.331 108.76 255.676C109.306 256.017 109.738 256.523 110.056 257.193C110.378 257.86 110.539 258.678 110.539 259.648C110.539 260.606 110.382 261.42 110.067 262.091C109.753 262.761 109.325 263.273 108.783 263.625C108.242 263.977 107.628 264.153 106.942 264.153C106.442 264.153 106.027 264.07 105.698 263.903C105.368 263.737 105.103 263.536 104.902 263.301C104.706 263.062 104.552 262.837 104.442 262.625H104.323V264H102.3ZM104.317 259.636C104.317 260.201 104.397 260.695 104.556 261.119C104.719 261.544 104.952 261.875 105.255 262.114C105.562 262.348 105.933 262.466 106.368 262.466C106.823 262.466 107.204 262.345 107.51 262.102C107.817 261.856 108.048 261.521 108.204 261.097C108.363 260.669 108.442 260.182 108.442 259.636C108.442 259.095 108.365 258.614 108.209 258.193C108.054 257.773 107.823 257.443 107.516 257.205C107.209 256.966 106.827 256.847 106.368 256.847C105.929 256.847 105.556 256.962 105.249 257.193C104.942 257.424 104.709 257.748 104.55 258.165C104.395 258.581 104.317 259.072 104.317 259.636ZM113.029 267.273C112.749 267.273 112.489 267.25 112.251 267.205C112.016 267.163 111.828 267.114 111.688 267.057L112.165 265.455C112.465 265.542 112.732 265.583 112.966 265.58C113.201 265.576 113.408 265.502 113.586 265.358C113.768 265.218 113.921 264.983 114.046 264.653L114.222 264.182L111.057 255.273H113.239L115.251 261.864H115.341L117.359 255.273H119.546L116.052 265.057C115.889 265.519 115.673 265.915 115.404 266.244C115.135 266.578 114.805 266.831 114.415 267.006C114.029 267.184 113.567 267.273 113.029 267.273ZM124.549 264V252.364H132.004V254.131H126.657V257.29H131.492V259.057H126.657V264H124.549ZM136.026 264.176C135.473 264.176 134.975 264.078 134.532 263.881C134.093 263.68 133.744 263.384 133.487 262.994C133.233 262.604 133.106 262.123 133.106 261.551C133.106 261.059 133.197 260.652 133.379 260.33C133.56 260.008 133.809 259.75 134.123 259.557C134.437 259.364 134.791 259.218 135.185 259.119C135.583 259.017 135.994 258.943 136.418 258.898C136.93 258.845 137.344 258.797 137.663 258.756C137.981 258.71 138.212 258.642 138.356 258.551C138.504 258.456 138.577 258.311 138.577 258.114V258.08C138.577 257.652 138.451 257.32 138.197 257.085C137.943 256.85 137.577 256.733 137.1 256.733C136.596 256.733 136.197 256.843 135.901 257.062C135.61 257.282 135.413 257.542 135.31 257.841L133.39 257.568C133.541 257.038 133.791 256.595 134.14 256.239C134.488 255.879 134.915 255.61 135.418 255.432C135.922 255.25 136.479 255.159 137.089 255.159C137.509 255.159 137.928 255.208 138.344 255.307C138.761 255.405 139.142 255.568 139.487 255.795C139.831 256.019 140.108 256.324 140.316 256.71C140.528 257.097 140.634 257.58 140.634 258.159V264H138.657V262.801H138.589C138.464 263.044 138.288 263.271 138.06 263.483C137.837 263.691 137.555 263.86 137.214 263.989C136.877 264.114 136.481 264.176 136.026 264.176ZM136.56 262.665C136.973 262.665 137.331 262.583 137.634 262.42C137.937 262.254 138.17 262.034 138.333 261.761C138.5 261.489 138.583 261.191 138.583 260.869V259.841C138.519 259.894 138.409 259.943 138.254 259.989C138.102 260.034 137.932 260.074 137.742 260.108C137.553 260.142 137.365 260.172 137.18 260.199C136.994 260.225 136.833 260.248 136.697 260.267C136.39 260.309 136.115 260.377 135.873 260.472C135.63 260.566 135.439 260.699 135.299 260.869C135.159 261.036 135.089 261.252 135.089 261.517C135.089 261.896 135.227 262.182 135.504 262.375C135.78 262.568 136.132 262.665 136.56 262.665ZM143.428 267.273C143.148 267.273 142.889 267.25 142.65 267.205C142.415 267.163 142.228 267.114 142.087 267.057L142.565 265.455C142.864 265.542 143.131 265.583 143.366 265.58C143.601 265.576 143.807 265.502 143.985 265.358C144.167 265.218 144.32 264.983 144.445 264.653L144.622 264.182L141.457 255.273H143.639L145.65 261.864H145.741L147.758 255.273H149.945L146.451 265.057C146.288 265.519 146.072 265.915 145.803 266.244C145.534 266.578 145.205 266.831 144.815 267.006C144.428 267.184 143.966 267.273 143.428 267.273ZM154.695 264.17C153.82 264.17 153.065 263.989 152.428 263.625C151.796 263.258 151.309 262.739 150.968 262.068C150.627 261.394 150.457 260.6 150.457 259.688C150.457 258.79 150.627 258.002 150.968 257.324C151.313 256.642 151.794 256.112 152.411 255.733C153.029 255.35 153.754 255.159 154.588 255.159C155.125 255.159 155.633 255.246 156.11 255.42C156.591 255.591 157.016 255.856 157.383 256.216C157.754 256.576 158.046 257.034 158.258 257.591C158.47 258.144 158.576 258.803 158.576 259.568V260.199H151.423V258.812H156.605C156.601 258.419 156.516 258.068 156.349 257.761C156.182 257.451 155.949 257.206 155.65 257.028C155.355 256.85 155.01 256.761 154.616 256.761C154.195 256.761 153.826 256.864 153.508 257.068C153.19 257.269 152.942 257.534 152.764 257.864C152.589 258.189 152.5 258.547 152.497 258.938V260.148C152.497 260.655 152.589 261.091 152.775 261.455C152.961 261.814 153.22 262.091 153.553 262.284C153.887 262.473 154.277 262.568 154.724 262.568C155.023 262.568 155.294 262.527 155.536 262.443C155.779 262.356 155.989 262.229 156.167 262.062C156.345 261.896 156.48 261.689 156.57 261.443L158.491 261.659C158.37 262.167 158.139 262.61 157.798 262.989C157.461 263.364 157.029 263.655 156.502 263.864C155.976 264.068 155.373 264.17 154.695 264.17Z" fill="#FEFFFF"/>
</g>
<rect x="0.5" y="0.5" width="302" height="294" rx="18.5" stroke="white" stroke-opacity="0.1"/>
<defs>
<filter id="filter0_bd_1935_161" x="-44.7" y="80.3" width="386.4" height="240.4" filterUnits="userSpaceOnUse" color-interpolation-filters="sRGB">
<feFlood flood-opacity="0" result="BackgroundImageFix"/>
<feGaussianBlur in="BackgroundImageFix" stdDeviation="12.85"/>
<feComposite in2="SourceAlpha" operator="in" result="effect1_backgroundBlur_1935_161"/>
<feColorMatrix in="SourceAlpha" type="matrix" values="0 0 0 0 0 0 0 0 0 0 0 0 0 0 0 0 0 0 127 0" result="hardAlpha"/>
<feOffset dy="-5"/>
<feGaussianBlur stdDeviation="2.2"/>
<feComposite in2="hardAlpha" operator="out"/>
<feColorMatrix type="matrix" values="0 0 0 0 0.163658 0 0 0 0 0.0247109 0 0 0 0 0.445113 0 0 0 0.3 0"/>
<feBlend mode="normal" in2="effect1_backgroundBlur_1935_161" result="effect2_dropShadow_1935_161"/>
<feBlend mode="normal" in="SourceGraphic" in2="effect2_dropShadow_1935_161" result="shape"/>
</filter>
<clipPath id="clip0_1935_161">
<rect width="303" height="295" rx="19" fill="white"/>
</clipPath>
</defs>
</svg>
